<svg width="211" height="25" viewBox="0 0 211 25" fill="none" xmlns="http://www.w3.org/2000/svg">
<path d="M4.984 25C4.19467 25 3.46933 24.808 2.808 24.424C2.168 24.04 1.656 23.5173 1.272 22.856C0.888 22.1947 0.696 21.4693 0.696 20.68V19.144H4.536V20.552C4.536 20.7227 4.58933 20.8613 4.696 20.968C4.80267 21.0747 4.94133 21.128 5.112 21.128H19.256C19.4267 21.128 19.5653 21.0747 19.672 20.968C19.8 20.8613 19.864 20.7227 19.864 20.552V15.976C19.864 15.8267 19.8 15.6987 19.672 15.592C19.5653 15.464 19.4267 15.4 19.256 15.4H4.984C4.19467 15.4 3.46933 15.208 2.808 14.824C2.168 14.44 1.656 13.928 1.272 13.288C0.888 12.6267 0.696 11.9013 0.696 11.112V6.28C0.696 5.49067 0.888 4.76533 1.272 4.104C1.656 3.44267 2.168 2.92 2.808 2.536C3.46933 2.152 4.19467 1.96 4.984 1.96H19.416C20.2053 1.96 20.92 2.152 21.56 2.536C22.2213 2.92 22.744 3.44267 23.128 4.104C23.5333 4.76533 23.736 5.49067 23.736 6.28V7.816H19.864V6.408C19.864 6.23733 19.8 6.09867 19.672 5.992C19.5653 5.88533 19.4267 5.832 19.256 5.832H5.112C4.94133 5.832 4.80267 5.88533 4.696 5.992C4.58933 6.09867 4.536 6.23733 4.536 6.408V10.984C4.536 11.1333 4.58933 11.272 4.696 11.4C4.80267 11.5067 4.94133 11.56 5.112 11.56H19.416C20.2053 11.56 20.92 11.752 21.56 12.136C22.2213 12.52 22.744 13.0427 23.128 13.704C23.5333 14.344 23.736 15.0587 23.736 15.848V20.68C23.736 21.4693 23.5333 22.1947 23.128 22.856C22.744 23.5173 22.2213 24.04 21.56 24.424C20.92 24.808 20.2053 25 19.416 25H4.984ZM27.1343 25V6.44H50.4943C51.3049 6.44 52.0303 6.64267 52.6703 7.048C53.3103 7.432 53.8223 7.944 54.2063 8.584C54.5903 9.224 54.7823 9.93867 54.7823 10.728V25H50.9743V10.856C50.9743 10.6853 50.9103 10.5467 50.7823 10.44C50.6756 10.312 50.5369 10.248 50.3663 10.248H43.4862C43.3369 10.248 43.1983 10.312 43.0703 10.44C42.9636 10.5467 42.9103 10.6853 42.9103 10.856V25H39.0383V10.856C39.0383 10.6853 38.9849 10.5467 38.8783 10.44C38.7716 10.312 38.6329 10.248 38.4623 10.248H31.5503C31.4009 10.248 31.2623 10.312 31.1343 10.44C31.0276 10.5467 30.9743 10.6853 30.9743 10.856V25H27.1343ZM62.1083 25C61.3189 25 60.5936 24.808 59.9323 24.424C59.2923 24.0187 58.7803 23.496 58.3963 22.856C58.0123 22.216 57.8203 21.5013 57.8203 20.712V13.8H72.8603V10.856C72.8603 10.6853 72.7963 10.5467 72.6683 10.44C72.5616 10.312 72.4229 10.248 72.2523 10.248H57.8203V6.44H72.3803C73.1909 6.44 73.9163 6.64267 74.5563 7.048C75.1963 7.432 75.7083 7.944 76.0923 8.584C76.4763 9.224 76.6683 9.93867 76.6683 10.728V25H62.1083ZM62.2363 21.192H72.8603V17.288H61.6283V20.584C61.6283 20.7547 61.6816 20.904 61.7883 21.032C61.9163 21.1387 62.0656 21.192 62.2363 21.192ZM79.5078 25V10.728C79.5078 9.93867 79.6998 9.224 80.0838 8.584C80.4891 7.944 81.0118 7.432 81.6518 7.048C82.3131 6.64267 83.0278 6.44 83.7958 6.44H94.1318V10.248H83.9238C83.7531 10.248 83.6038 10.312 83.4758 10.44C83.3691 10.5467 83.3158 10.6853 83.3158 10.856V25H79.5078ZM100.422 25C99.6322 25 98.9068 24.808 98.2455 24.424C97.6055 24.0187 97.0935 23.496 96.7095 22.856C96.3255 22.216 96.1335 21.5013 96.1335 20.712V0.647999H99.9415V6.44H107.366V10.248H99.9415V20.584C99.9415 20.7547 99.9948 20.904 100.102 21.032C100.23 21.1387 100.379 21.192 100.55 21.192H107.366V25H100.422ZM119.637 25V1.96H138.357C139.147 1.96 139.861 2.152 140.501 2.536C141.163 2.92 141.685 3.44267 142.069 4.104C142.475 4.76533 142.677 5.49067 142.677 6.28V20.68C142.677 21.4693 142.475 22.1947 142.069 22.856C141.685 23.5173 141.163 24.04 140.501 24.424C139.861 24.808 139.147 25 138.357 25H119.637ZM124.053 21.128H138.229C138.379 21.128 138.507 21.0747 138.613 20.968C138.741 20.8613 138.805 20.7227 138.805 20.552V6.408C138.805 6.23733 138.741 6.09867 138.613 5.992C138.507 5.88533 138.379 5.832 138.229 5.832H124.053C123.883 5.832 123.733 5.88533 123.605 5.992C123.499 6.09867 123.445 6.23733 123.445 6.408V20.552C123.445 20.7227 123.499 20.8613 123.605 20.968C123.733 21.0747 123.883 21.128 124.053 21.128ZM150.389 25C149.599 25 148.885 24.808 148.245 24.424C147.605 24.0187 147.082 23.496 146.677 22.856C146.293 22.216 146.101 21.5013 146.101 20.712V10.728C146.101 9.93867 146.293 9.224 146.677 8.584C147.082 7.944 147.605 7.432 148.245 7.048C148.885 6.64267 149.599 6.44 150.389 6.44H160.661C161.471 6.44 162.197 6.64267 162.837 7.048C163.477 7.432 163.989 7.944 164.373 8.584C164.757 9.224 164.949 9.93867 164.949 10.728V17.64H149.909V20.584C149.909 20.7547 149.962 20.904 150.069 21.032C150.197 21.1387 150.346 21.192 150.517 21.192H164.949V25H150.389ZM149.909 14.152H161.141V10.856C161.141 10.6853 161.077 10.5467 160.949 10.44C160.842 10.312 160.703 10.248 160.533 10.248H150.517C150.346 10.248 150.197 10.312 150.069 10.44C149.962 10.5467 149.909 10.6853 149.909 10.856V14.152ZM176.255 25L166.047 6.44H170.463L178.111 20.488L185.759 6.44H190.175L179.903 25H176.255ZM196.074 25C195.285 25 194.57 24.808 193.93 24.424C193.29 24.0187 192.767 23.496 192.362 22.856C191.978 22.216 191.786 21.5013 191.786 20.712V20.104H195.594V20.584C195.594 20.7547 195.647 20.904 195.754 21.032C195.882 21.1387 196.031 21.192 196.202 21.192H206.218C206.389 21.192 206.527 21.1387 206.634 21.032C206.762 20.904 206.826 20.7547 206.826 20.584V18.216C206.826 18.0667 206.762 17.9387 206.634 17.832C206.527 17.704 206.389 17.64 206.218 17.64H196.074C195.285 17.64 194.57 17.448 193.93 17.064C193.29 16.6587 192.767 16.136 192.362 15.496C191.978 14.856 191.786 14.1413 191.786 13.352V10.728C191.786 9.93867 191.978 9.224 192.362 8.584C192.767 7.944 193.29 7.432 193.93 7.048C194.57 6.64267 195.285 6.44 196.074 6.44H206.346C207.157 6.44 207.882 6.64267 208.522 7.048C209.162 7.432 209.674 7.944 210.058 8.584C210.463 9.224 210.666 9.93867 210.666 10.728V11.336H206.826V10.856C206.826 10.6853 206.762 10.5467 206.634 10.44C206.527 10.312 206.389 10.248 206.218 10.248H196.202C196.031 10.248 195.882 10.312 195.754 10.44C195.647 10.5467 195.594 10.6853 195.594 10.856V13.224C195.594 13.3733 195.647 13.512 195.754 13.64C195.882 13.7467 196.031 13.8 196.202 13.8H206.346C207.157 13.8 207.882 14.0027 208.522 14.408C209.162 14.792 209.674 15.304 210.058 15.944C210.463 16.584 210.666 17.2987 210.666 18.088V20.712C210.666 21.5013 210.463 22.216 210.058 22.856C209.674 23.496 209.162 24.0187 208.522 24.424C207.882 24.808 207.157 25 206.346 25H196.074Z" fill="url(#paint0_linear_49_201)"/>
<defs>
<linearGradient id="paint0_linear_49_201" x1="-7.27106" y1="0.179494" x2="216.792" y2="14.6004" gradientUnits="userSpaceOnUse">
<stop stop-color="#E4F6FF"/>
<stop offset="1" stop-color="#1B9BDB"/>
</linearGradient>
</defs>
</svg>
