<svg width="449" height="1182" viewBox="0 0 449 1182" fill="none" xmlns="http://www.w3.org/2000/svg">
<path d="M-19 50.8987L110.294 240.165M177.5 338.543L110.294 240.165M177.5 338.543L79.25 408.207M177.5 338.543L37.6471 278.368M110.294 240.165L186.147 190.226M110.294 240.165L37.6471 278.368M262 140.288L397.5 213.697L448 -31M262 140.288L204.5 -31M262 140.288L363.5 -0.0382779M262 140.288L186.147 190.226M262 140.288L130 100.837M-19 477.871L79.25 408.207M79.25 408.207L177.5 531.305M79.25 408.207L59.5 577.747M177.5 531.305L110.294 710.084M177.5 531.305L59.5 577.747M110.294 710.084L59.5 577.747M110.294 710.084L-35 662.143M110.294 710.084L177.5 778M59.5 577.747H-35M177.5 778L110.294 926.316M177.5 778C169.1 778 32.3333 802.969 -35 815.454L110.294 926.316M110.294 926.316L167 1085.12M110.294 926.316L59.5 1047.67L167 1085.12M167 1085.12L59.5 1181L-19 1123.07M-35 316.57L37.6471 278.368M186.147 190.226L130 100.837M130 100.837L116 -2.03581" stroke="#FDBB59"/>
</svg>
